<?xml version="1.0" encoding="UTF-8" standalone="no"?>
<!-- Generator: Adobe Illustrator 12.0.0, SVG Export Plug-In . SVG Version: 6.00 Build 51448)  -->
<svg xmlns:dc="http://purl.org/dc/elements/1.1/" xmlns:cc="http://creativecommons.org/ns#" xmlns:rdf="http://www.w3.org/1999/02/22-rdf-syntax-ns#" xmlns:svg="http://www.w3.org/2000/svg" xmlns="http://www.w3.org/2000/svg" xmlns:sodipodi="http://sodipodi.sourceforge.net/DTD/sodipodi-0.dtd" xmlns:inkscape="http://www.inkscape.org/namespaces/inkscape" version="1.1" id="svg2" inkscape:version="0.47pre4 " sodipodi:docname="DO-41 (shaded).svg" width="500" height="300" viewBox="0 0 499.99998 299.99999" overflow="visible" enable-background="new 0 0 595.275 841.89" xml:space="preserve" style="overflow:visible"><metadata id="metadata3297"><rdf:RDF><cc:Work rdf:about=""><dc:format>image/svg+xml</dc:format><dc:type rdf:resource="http://purl.org/dc/dcmitype/StillImage"/><dc:title/></cc:Work></rdf:RDF></metadata>
<defs id="defs3244">
	
	
		<inkscape:perspective sodipodi:type="inkscape:persp3d" inkscape:persp3d-origin="372.04724 : 350.78739 : 1" inkscape:vp_y="0 : 1000 : 0" inkscape:vp_x="0 : 526.18109 : 1" inkscape:vp_z="744.09448 : 526.18109 : 1" id="perspective10">
		</inkscape:perspective>
	
		<inkscape:perspective sodipodi:type="inkscape:persp3d" inkscape:persp3d-origin="0.5 : 0.33333333 : 1" inkscape:vp_y="0 : 1000 : 0" inkscape:vp_x="0 : 0.5 : 1" inkscape:vp_z="1 : 0.5 : 1" id="perspective2824">
		</inkscape:perspective>
	
		<inkscape:perspective sodipodi:type="inkscape:persp3d" inkscape:persp3d-origin="0.5 : 0.33333333 : 1" inkscape:vp_y="0 : 1000 : 0" inkscape:vp_x="0 : 0.5 : 1" inkscape:vp_z="1 : 0.5 : 1" id="perspective2964">
		</inkscape:perspective>

		
	</defs>
<sodipodi:namedview inkscape:cx="497.56318" borderopacity="1.0" showgrid="false" bordercolor="#666666" inkscape:zoom="0.70710678" pagecolor="#ffffff" inkscape:document-units="px" inkscape:window-maximized="1" inkscape:cy="161.76329" id="base" inkscape:pageopacity="0.0" inkscape:pageshadow="2" inkscape:current-layer="layer1" inkscape:window-width="1395" inkscape:window-height="874" inkscape:window-x="41" inkscape:window-y="-4">
	</sodipodi:namedview>
<g id="layer1" transform="translate(0,-1294.2522)" inkscape:label="Layer 1" inkscape:groupmode="layer">
	<g id="XMLID_1_" transform="matrix(1.5,0,0,1.5,-131.72931,93.532174)">
			<g id="g3253">
				<path style="fill:#babdb6" id="path3255" d="m 410.35834,805.22433 c 3.069,-1.56 7.369,5.86 4.479,7.74 l -0.02,-0.03 -131.46334,76.03667 -0.01,0.01 c -1,-2.8 -2.6,-5.58 -4.52,-7.84 l 131.53434,-75.91667 z" sodipodi:nodetypes="ccccccc"/>
				<path style="fill:#eeeeec" id="path3257" d="m 278.825,881.141 c 1.92,2.26 3.52,5.04 4.52,7.84 1.77,4.95 1.67,9.99 -1.84,12.45 l -0.02,-0.03 -8.68,5.03 c 8.63,-6.51 -4.59,-29.32 -14.51,-24.79 l 8.8,-5.09 c 3.9,-1.84 8.32,0.57 11.73,4.59 z"/>
				<path style="fill:#2e3436" id="path3259" d="m 226.495,900.011 31.8,-18.37 c 9.92,-4.53 23.14,18.28 14.51,24.79 l -31.88,18.47 c 2.16,-1.28 3.38,-4.31 2.65,-9.24 -0.19,-1.72 -0.91,-3.84 -2.02,-5.97 -3.14,-6.09 -9.35,-12.31 -15.05,-9.66 l -0.01,-0.02 z"/>
				<path style="fill:#2e3436" id="path3261" d="m 235.945,916.351 c 2.8,-2.03 -1.51,-9.3 -4.53,-7.74 l -6.84,3.95 c -1.32,-3.65 -2.06,-10.22 1.93,-12.53 5.7,-2.65 11.91,3.57 15.05,9.66 1.11,2.13 1.83,4.25 2.02,5.97 0.73,4.93 -0.49,7.96 -2.65,9.24 l -0.08,0.04 c -3.03,1.7 -7.84,0.03 -11.76,-4.62 l -0.02,-0.03 6.86,-3.97 0.02,0.03 z"/>
				<path style="fill:#babdb6" id="path3263" d="m 98.248331,995.93433 c -3.06,1.52 -7.32,-5.79 -4.46,-7.76 3.08,-1.51 7.399999,5.87 4.46,7.76 z"/>
				<path style="fill:#babdb6" id="path3265" d="M 94.278331,987.65433 224.575,912.561 l 6.84,-3.95 c 3.02,-1.56 7.33,5.71 4.53,7.74 l -0.02,-0.03 -6.86,3.97 -130.316669,75.14333 c 2.939999,-1.89 -1.38,-9.27 -4.46,-7.76 l -0.01,-0.02 z" sodipodi:nodetypes="ccccccccc"/>
			</g>
			<g id="g3267">
				
					<path style="fill:none;stroke:#000000;stroke-width:1.33333337;stroke-linecap:round;stroke-linejoin:round;stroke-miterlimit:10" id="path3269" d="m 410.4863,805.32493 c 3.069,-1.56 7.369,5.86 4.479,7.74 -0.01,0.01 -0.01,0.02 -0.02,0.02" stroke-miterlimit="10"/>
				
					<polyline style="fill:none;stroke:#000000;stroke-width:1.33333337;stroke-linecap:round;stroke-linejoin:round;stroke-miterlimit:10" id="polyline3271" points="      267.094,876.551 258.295,881.641 226.495,900.011 226.455,900.031     " stroke-miterlimit="10"/>
				
					<path style="fill:none;stroke:#000000;stroke-width:1.33333337;stroke-linecap:round;stroke-linejoin:round;stroke-miterlimit:10" id="path3273" d="m 240.844,924.941 c -3.03,1.7 -7.84,0.03 -11.76,-4.62" stroke-miterlimit="10"/>
				
					<path style="fill:none;stroke:#000000;stroke-width:1.33333337;stroke-linecap:round;stroke-linejoin:round;stroke-miterlimit:10" id="path3275" d="m 226.505,900.031 c 5.7,-2.65 11.91,3.57 15.05,9.66 1.11,2.13 1.83,4.25 2.02,5.97 0.73,4.93 -0.49,7.96 -2.65,9.24" stroke-miterlimit="10"/>
				
					<path style="fill:none;stroke:#000000;stroke-width:1.33333337;stroke-linecap:round;stroke-linejoin:round;stroke-miterlimit:10" id="path3277" d="m 224.575,912.561 c -1.32,-3.65 -2.06,-10.22 1.93,-12.53" stroke-miterlimit="10"/>
				
					<polyline style="fill:none;stroke:#000000;stroke-width:2.09025216;stroke-linecap:round;stroke-linejoin:round;stroke-miterlimit:10" id="polyline3279" points="      231.415,908.611 224.575,912.561 16.445,1032.821 16.405,1032.841     " stroke-miterlimit="10" transform="matrix(0.63860545,0,0,0.63715857,83.435316,329.79956)"/>
				
					<path style="fill:none;stroke:#000000;stroke-width:1.33333337;stroke-linecap:round;stroke-linejoin:round;stroke-miterlimit:10" id="path3281" d="m 93.996664,987.88267 c 3.08,-1.51 7.399996,5.87 4.46,7.76 -3.06,1.52 -7.321,-5.79 -4.46,-7.76" stroke-miterlimit="10"/>
				
					<path style="fill:none;stroke:#000000;stroke-width:1.33333337;stroke-linecap:round;stroke-linejoin:round;stroke-miterlimit:10" id="path3283" d="m 231.415,908.611 c 3.02,-1.56 7.33,5.71 4.53,7.74 -0.01,0.01 -0.01,0.02 -0.02,0.02" stroke-miterlimit="10"/>
				
					<polyline style="fill:none;stroke:#000000;stroke-width:2.1135323;stroke-linecap:round;stroke-linejoin:round;stroke-miterlimit:10" id="polyline3285" points="      487.025,760.891 278.825,881.141 278.795,881.161     " stroke-miterlimit="10" transform="matrix(0.63171289,0,0,0.62999918,102.6766,326.03029)"/>
				
					<polyline style="fill:none;stroke:#000000;stroke-width:1.33333337;stroke-linecap:round;stroke-linejoin:round;stroke-miterlimit:10" id="polyline3287" points="      240.844,924.941 240.925,924.901 272.805,906.432 281.485,901.401     " stroke-miterlimit="10"/>
				
					<polyline style="fill:none;stroke:#000000;stroke-width:2.09025216;stroke-linecap:round;stroke-linejoin:round;stroke-miterlimit:10" id="polyline3289" points="      20.915,1040.601 229.065,920.291 235.925,916.321     " stroke-miterlimit="10" transform="matrix(0.63860545,0,0,0.63715857,85.026306,332.62799)"/>
				
					<line style="fill:none;stroke:#000000;stroke-width:1.33333337;stroke-linecap:round;stroke-linejoin:round;stroke-miterlimit:10" id="line3291" y2="813.20306" x2="414.72113" y1="888.97198" x1="283.35501" stroke-miterlimit="10"/>
				
					<path style="fill:none;stroke:#000000;stroke-width:1.33333337;stroke-linecap:round;stroke-linejoin:round;stroke-miterlimit:10" id="path3293" d="m 267.094,876.551 c 3.9,-1.84 8.32,0.57 11.73,4.59 1.92,2.26 3.52,5.04 4.52,7.84 1.77,4.95 1.67,9.99 -1.84,12.45 -0.01,0.01 -0.01,0.02 -0.02,0.02" stroke-miterlimit="10"/>
				
					<path style="fill:none;stroke:#000000;stroke-width:1.33333337;stroke-linecap:round;stroke-linejoin:round;stroke-miterlimit:10" id="path3295" d="m 258.215,881.671 c 0.03,-0.01 0.05,-0.03 0.08,-0.03 9.92,-4.53 23.14,18.28 14.51,24.79 -0.06,0.05 -0.13,0.1 -0.2,0.15" stroke-miterlimit="10"/>
			</g>
		</g>
</g>
</svg>