<?xml version="1.0" encoding="UTF-8" standalone="no"?>
<!-- Created using Karbon, part of Calligra: http://www.calligra.org/karbon -->

<svg
   xmlns:dc="http://purl.org/dc/elements/1.1/"
   xmlns:cc="http://creativecommons.org/ns#"
   xmlns:rdf="http://www.w3.org/1999/02/22-rdf-syntax-ns#"
   xmlns:svg="http://www.w3.org/2000/svg"
   xmlns="http://www.w3.org/2000/svg"
   xmlns:sodipodi="http://sodipodi.sourceforge.net/DTD/sodipodi-0.dtd"
   xmlns:inkscape="http://www.inkscape.org/namespaces/inkscape"
   width="12.8pt"
   height="12.8pt"
   id="svg3394"
   version="1.1"
   inkscape:version="0.91 r13725"
   sodipodi:docname="snap-grid.svg">
  <metadata
     id="metadata3402">
    <rdf:RDF>
      <cc:Work
         rdf:about="">
        <dc:format>image/svg+xml</dc:format>
        <dc:type
           rdf:resource="http://purl.org/dc/dcmitype/StillImage" />
        <dc:title />
      </cc:Work>
    </rdf:RDF>
  </metadata>
  <sodipodi:namedview
     pagecolor="#ffffff"
     bordercolor="#666666"
     borderopacity="1"
     objecttolerance="10"
     gridtolerance="10"
     guidetolerance="10"
     inkscape:pageopacity="0"
     inkscape:pageshadow="2"
     inkscape:window-width="1920"
     inkscape:window-height="1007"
     id="namedview3400"
     showgrid="true"
     inkscape:zoom="58.999999"
     inkscape:cx="7.4693325"
     inkscape:cy="8.0556926"
     inkscape:window-x="0"
     inkscape:window-y="0"
     inkscape:window-maximized="1"
     inkscape:current-layer="svg3394">
    <inkscape:grid
       type="xygrid"
       id="grid3404"
       dotted="false" />
  </sodipodi:namedview>
  <defs
     id="defs3396" />
  <path
     style="fill:#4d4d4d;fill-opacity:1;stroke-width:0;stroke-miterlimit:4;stroke-dasharray:none;stroke:#4d4d4d;stroke-opacity:1"
     d="m 1.9446932,4.9663416 0,-0.5 6.0169492,0 6.0169496,0 0,0.5 0,0.5 -6.0169496,0 -6.0169492,0 0,-0.5 z"
     id="path4208"
     inkscape:connector-curvature="0" />
  <path
     style="fill:#4d4d4d;fill-opacity:1"
     d="m 1.9955407,11.01695 0,-0.5 6.0169492,0 6.0169491,0 0,0.5 0,0.5 -6.0169491,0 -6.0169492,0 0,-0.5 z"
     id="path4208-8"
     inkscape:connector-curvature="0" />
  <path
     style="fill:#4d4d4d;fill-opacity:1"
     d="m 5.0125119,13.966089 -0.4999989,10e-4 -0.012512,-6.0169357 -0.012512,-6.016936 0.499999,-0.00104 0.4999989,-0.00104 0.012512,6.016936 0.012512,6.0169357 -0.499999,10e-4 z"
     id="path4208-8-4"
     inkscape:connector-curvature="0" />
  <path
     style="fill:#4d4d4d;fill-opacity:1"
     d="m 11.04641,14.000027 -0.499999,0.001 -0.01251,-6.016936 -0.01251,-6.016936 0.499999,-0.00104 0.499999,-0.00104 0.01251,6.016936 0.01251,6.016936 -0.499999,0.001 z"
     id="path4208-8-4-8"
     inkscape:connector-curvature="0" />
  <circle
     style="fill:#4d4d4d;fill-opacity:1;stroke:#4d4d4d;stroke-linecap:round;stroke-opacity:1"
     id="path4992"
     cx="5.0228362"
     cy="4.8292832"
     r="1" />
  <circle
     style="fill:#4d4d4d;fill-opacity:1;stroke:#4d4d4d;stroke-linecap:round;stroke-opacity:1"
     id="path4992-5"
     cx="11.056734"
     cy="4.9140286"
     r="1" />
  <circle
     style="fill:#4d4d4d;fill-opacity:1;stroke:#4d4d4d;stroke-linecap:round;stroke-opacity:1"
     id="path4992-52"
     cx="11.005887"
     cy="11.032673"
     r="1" />
  <circle
     style="fill:#4d4d4d;fill-opacity:1;stroke:#4d4d4d;stroke-linecap:round;stroke-opacity:1"
     id="path4992-8"
     cx="4.9830508"
     cy="11.168266"
     r="1" />
</svg>
